<?xml version="1.0" encoding="UTF-8" standalone="no"?>
<svg
   xmlns:dc="http://purl.org/dc/elements/1.1/"
   xmlns:cc="http://creativecommons.org/ns#"
   xmlns:rdf="http://www.w3.org/1999/02/22-rdf-syntax-ns#"
   xmlns:svg="http://www.w3.org/2000/svg"
   xmlns="http://www.w3.org/2000/svg"
   xmlns:sodipodi="http://sodipodi.sourceforge.net/DTD/sodipodi-0.dtd"
   xmlns:inkscape="http://www.inkscape.org/namespaces/inkscape"
   width="1024px"
   height="1024px"
   viewBox="0 0 1024 1024"
   version="1.1"
   id="svg16"
   sodipodi:docname="ScratchDesktop.svg"
   inkscape:version="0.92.3 (2405546, 2018-03-11)">
  <metadata
     id="metadata22">
    <rdf:RDF>
      <cc:Work
         rdf:about="">
        <dc:format>image/svg+xml</dc:format>
        <dc:type
           rdf:resource="http://purl.org/dc/dcmitype/StillImage" />
      </cc:Work>
    </rdf:RDF>
  </metadata>
  <defs
     id="defs20" />
  <sodipodi:namedview
     pagecolor="#ffffff"
     bordercolor="#666666"
     borderopacity="1"
     objecttolerance="10"
     gridtolerance="10"
     guidetolerance="10"
     inkscape:pageopacity="0"
     inkscape:pageshadow="2"
     inkscape:window-width="1920"
     inkscape:window-height="1023"
     id="namedview18"
     showgrid="false"
     inkscape:zoom="0.65186406"
     inkscape:cx="501.74469"
     inkscape:cy="519.24197"
     inkscape:window-x="0"
     inkscape:window-y="0"
     inkscape:window-maximized="1"
     inkscape:current-layer="svg16" />
  <!-- Generator: Sketch 52.2 (67145) - http://www.bohemiancoding.com/sketch -->
  <title
     id="title2">Master 1024x1024</title>
  <desc
     id="desc4">Created with Sketch.</desc>
  <g
     transform="matrix(5.8397559,0,0,5.8397559,-101.17436,-347.1461)"
     id="g3736">
    <path
       style="fill:#4d97ff;fill-opacity:0.99061028;stroke:#ffffff;stroke-width:3.91424584;stroke-miterlimit:4;stroke-dasharray:none;stroke-opacity:1"
       d="M 184.20513,147.12021 A 79.205132,79.205124 0 0 1 105,226.32533 79.205132,79.205124 0 0 1 25.794868,147.12021 79.205132,79.205124 0 0 1 105,67.915085 79.205132,79.205124 0 0 1 184.20513,147.12021 Z"
       id="path829"
       inkscape:connector-curvature="0" />
    <g
       aria-label="S"
       transform="matrix(7.4319284,0,0,7.4319284,-1824.4648,-3204.1419)"
       style="font-style:normal;font-variant:normal;font-weight:normal;font-stretch:normal;font-size:17.33333397px;line-height:1.25;font-family:'Architects Daughter';-inkscape-font-specification:'Architects Daughter';letter-spacing:-0.23999999px;word-spacing:0px;fill:#ffffff;fill-opacity:1;stroke:none"
       id="flowRoot833">
      <path
         d="m 253.17904,456.21882 q 0,-0.20313 0.13541,-0.38932 0.15235,-0.20313 0.33854,-0.3724 0.1862,-0.16927 0.35547,-0.28776 0.1862,-0.11849 0.25391,-0.16927 0.0846,0.77864 0.59245,1.18489 0.50781,0.38933 1.26953,0.50782 0.76172,0.10156 1.70963,-0.0339 0.94792,-0.13541 1.89584,-0.42317 0.94791,-0.28777 1.82812,-0.67709 0.88021,-0.40625 1.50651,-0.82943 0.62631,-0.42317 0.93099,-0.8125 0.30469,-0.40625 0.10157,-0.69401 l -8.81902,-3.5039 q -0.16927,-0.0508 -0.42317,-0.16927 -0.23698,-0.13542 -0.45703,-0.28776 -0.22006,-0.16927 -0.3724,-0.35547 -0.15234,-0.20313 -0.15234,-0.40625 0,-0.79558 0.57552,-1.45573 0.59245,-0.66016 1.50651,-1.16797 0.91406,-0.52474 2.03125,-0.91406 1.11719,-0.38933 2.16667,-0.64323 1.04947,-0.27084 1.91276,-0.40625 0.8802,-0.13542 1.30338,-0.16927 0.27083,-0.0846 0.57552,-0.0677 0.32162,0.0169 0.5586,0.13542 0.2539,0.10156 0.37239,0.30468 0.13542,0.1862 0.0339,0.45703 -0.10157,0.25391 -0.5586,0.45704 -0.45703,0.20312 -1.13411,0.37239 -0.66016,0.16927 -1.48959,0.33854 -0.8125,0.15235 -1.65885,0.32162 -0.82943,0.16927 -1.60807,0.37239 -0.76172,0.1862 -1.35417,0.44011 -0.57552,0.2539 -0.88021,0.59245 -0.30469,0.32161 -0.22005,0.74479 0.40625,0.13541 1.23568,0.42317 0.82942,0.27084 1.84505,0.64323 1.03255,0.3724 2.13281,0.79558 1.10026,0.42317 2.03125,0.84635 0.94792,0.42318 1.625,0.8125 0.67708,0.3724 0.86328,0.64323 0.38933,0.60938 0.30469,1.1849 -0.0677,0.55859 -0.49089,1.08333 -0.40625,0.52474 -1.08333,0.9987 -0.67708,0.45703 -1.48958,0.86328 -0.8125,0.38932 -1.69271,0.71094 -0.88021,0.30468 -1.69271,0.52474 -0.79557,0.22005 -1.47266,0.33854 -0.66015,0.10156 -1.0664,0.0846 -0.23698,0.0339 -0.6263,0 -0.3724,-0.0339 -0.8125,-0.13541 -0.42318,-0.10157 -0.86328,-0.27084 -0.44011,-0.16927 -0.79558,-0.38932 -0.35547,-0.23698 -0.57552,-0.52474 -0.22005,-0.28776 -0.20312,-0.6263 z"
         id="path3727"
         inkscape:connector-curvature="0" />
    </g>
  </g>
</svg>
