<?xml version="1.0" encoding="UTF-8" ?>
<!DOCTYPE svg PUBLIC "-//W3C//DTD SVG 1.1//EN" "http://www.w3.org/Graphics/SVG/1.1/DTD/svg11.dtd">
<svg width="850pt" height="850pt" viewBox="0 0 850 850" version="1.1" xmlns="http://www.w3.org/2000/svg">
<g id="#79b0fdff">
<path fill="#79b0fd" opacity="1.00" d=" M 293.84 40.63 C 363.94 15.47 441.31 11.27 513.82 28.17 C 577.11 42.83 636.47 73.83 684.84 117.18 C 732.00 159.27 768.76 212.95 790.72 272.24 C 808.86 320.96 816.91 373.35 814.63 425.26 C 813.03 443.59 811.57 461.97 807.94 480.04 C 795.62 546.17 765.62 608.85 721.98 660.03 C 680.66 708.78 627.16 747.22 567.64 770.57 C 492.14 800.56 407.14 805.79 328.48 785.51 C 260.81 768.38 198.26 732.29 149.00 682.91 C 126.25 659.90 106.19 634.21 89.70 606.36 C 59.66 555.88 41.40 498.46 36.66 439.91 C 36.32 435.02 36.03 430.12 35.38 425.26 C 31.88 349.11 51.27 272.06 90.81 206.85 C 136.75 130.34 209.68 70.42 293.84 40.63 M 363.77 60.64 C 354.25 62.21 344.68 63.77 335.41 66.55 C 293.65 78.40 253.85 97.26 218.36 122.27 C 198.46 137.14 180.01 153.90 163.28 172.25 C 150.08 186.95 137.53 202.36 127.35 219.35 C 107.02 252.00 91.60 287.71 81.79 324.90 C 77.26 344.96 74.70 365.43 73.48 385.94 C 73.21 393.78 72.40 401.64 73.15 409.48 C 73.00 410.65 72.91 411.83 72.89 413.02 C 73.69 439.20 76.15 465.42 81.97 491.00 C 93.48 534.72 112.79 576.37 138.67 613.45 C 161.31 644.02 188.49 671.22 219.01 693.94 C 247.45 713.93 278.67 729.93 311.41 741.59 C 325.28 746.34 339.27 751.00 353.75 753.47 C 400.76 762.12 449.36 762.13 496.37 753.44 C 510.31 751.08 523.77 746.62 537.13 742.09 C 570.41 730.43 602.11 714.21 630.98 693.95 C 660.59 671.92 687.01 645.64 709.29 616.23 C 728.80 589.15 744.41 559.32 756.20 528.12 C 762.15 511.76 767.81 495.17 770.70 477.95 C 774.11 459.17 776.09 440.14 776.76 421.06 C 776.93 416.92 777.43 412.75 776.85 408.63 C 777.31 403.77 777.17 398.88 776.90 394.02 C 776.02 371.03 773.34 348.08 768.38 325.60 C 759.59 291.92 746.17 259.44 728.66 229.35 C 721.22 216.73 713.45 204.23 704.17 192.86 C 691.16 176.34 676.75 160.95 661.27 146.73 C 648.70 135.51 635.78 124.56 621.59 115.41 C 591.36 95.60 558.38 80.00 523.85 69.31 C 500.64 61.74 476.24 58.69 451.98 56.77 C 422.56 54.79 392.91 56.05 363.77 60.64 Z" />
</g>
<g id="#4282dcff">
<path fill="#4282dc" opacity="1.00" d=" M 363.77 60.64 C 392.91 56.05 422.56 54.79 451.98 56.77 C 476.24 58.69 500.64 61.74 523.85 69.31 C 558.38 80.00 591.36 95.60 621.59 115.41 C 635.78 124.56 648.70 135.51 661.27 146.73 C 676.75 160.95 691.16 176.34 704.17 192.86 C 713.45 204.23 721.22 216.73 728.66 229.35 C 746.17 259.44 759.59 291.92 768.38 325.60 C 773.34 348.08 776.02 371.03 776.90 394.02 C 777.17 398.88 777.31 403.77 776.85 408.63 C 775.18 395.77 774.43 382.80 772.07 370.03 C 769.51 352.19 764.03 334.95 758.02 318.01 C 750.14 296.58 740.64 275.70 729.04 256.01 C 721.79 243.80 714.41 231.57 705.44 220.52 C 684.55 193.97 660.32 169.99 633.31 149.68 C 600.62 126.33 564.16 108.30 525.87 96.19 C 517.29 93.57 508.69 90.90 499.86 89.28 C 453.96 80.43 406.50 79.83 360.40 87.44 C 336.51 91.06 313.57 99.16 291.28 108.25 C 264.98 119.22 239.87 133.10 216.69 149.69 C 187.39 171.72 161.35 198.05 139.30 227.33 C 118.53 256.76 101.97 289.12 90.17 323.14 C 85.14 337.84 80.56 352.76 78.24 368.16 C 75.68 381.82 74.74 395.70 73.15 409.48 C 72.40 401.64 73.21 393.78 73.48 385.94 C 74.70 365.43 77.26 344.96 81.79 324.90 C 91.60 287.71 107.02 252.00 127.35 219.35 C 137.53 202.36 150.08 186.95 163.28 172.25 C 180.01 153.90 198.46 137.14 218.36 122.27 C 253.85 97.26 293.65 78.40 335.41 66.55 C 344.68 63.77 354.25 62.21 363.77 60.64 Z" />
<path fill="#4282dc" opacity="1.00" d=" M 35.38 425.26 C 36.03 430.12 36.32 435.02 36.66 439.91 C 41.40 498.46 59.66 555.88 89.70 606.36 C 106.19 634.21 126.25 659.90 149.00 682.91 C 198.26 732.29 260.81 768.38 328.48 785.51 C 407.14 805.79 492.14 800.56 567.64 770.57 C 627.16 747.22 680.66 708.78 721.98 660.03 C 765.62 608.85 795.62 546.17 807.94 480.04 C 811.57 461.97 813.03 443.59 814.63 425.26 C 815.47 435.15 814.76 445.12 815.01 455.04 C 813.05 524.40 791.98 593.13 754.62 651.62 C 727.04 695.08 690.76 732.94 648.60 762.46 C 592.40 801.98 525.48 826.04 456.99 831.44 C 439.98 833.01 422.85 832.59 405.80 832.29 C 329.61 828.76 254.62 802.21 193.39 756.68 C 149.79 724.53 112.99 683.24 86.05 636.22 C 63.81 597.33 48.30 554.58 40.63 510.42 C 37.55 492.78 35.71 474.92 34.98 457.03 C 35.25 446.45 34.52 435.81 35.38 425.26 Z" />
</g>
<g id="#4d97ffff">
<path fill="#4d97ff" opacity="1.00" d=" M 360.40 87.44 C 406.50 79.83 453.96 80.43 499.86 89.28 C 508.69 90.90 517.29 93.57 525.87 96.19 C 564.16 108.30 600.62 126.33 633.31 149.68 C 660.32 169.99 684.55 193.97 705.44 220.52 C 714.41 231.57 721.79 243.80 729.04 256.01 C 740.64 275.70 750.14 296.58 758.02 318.01 C 764.03 334.95 769.51 352.19 772.07 370.03 C 774.43 382.80 775.18 395.77 776.85 408.63 C 777.43 412.75 776.93 416.92 776.76 421.06 C 776.09 440.14 774.11 459.17 770.70 477.95 C 767.81 495.17 762.15 511.76 756.20 528.12 C 744.41 559.32 728.80 589.15 709.29 616.23 C 687.01 645.64 660.59 671.92 630.98 693.95 C 602.11 714.21 570.41 730.43 537.13 742.09 C 523.77 746.62 510.31 751.08 496.37 753.44 C 449.36 762.13 400.76 762.12 353.75 753.47 C 339.27 751.00 325.28 746.34 311.41 741.59 C 278.67 729.93 247.45 713.93 219.01 693.94 C 188.49 671.22 161.31 644.02 138.67 613.45 C 112.79 576.37 93.48 534.72 81.97 491.00 C 76.15 465.42 73.69 439.20 72.89 413.02 C 72.91 411.83 73.00 410.65 73.15 409.48 C 74.74 395.70 75.68 381.82 78.24 368.16 C 80.56 352.76 85.14 337.84 90.17 323.14 C 101.97 289.12 118.53 256.76 139.30 227.33 C 161.35 198.05 187.39 171.72 216.69 149.69 C 239.87 133.10 264.98 119.22 291.28 108.25 C 313.57 99.16 336.51 91.06 360.40 87.44 M 323.89 189.54 C 298.29 198.28 273.59 211.97 256.12 233.04 C 243.73 247.75 236.09 266.10 232.92 284.98 C 230.90 296.73 231.04 308.72 231.89 320.57 C 230.75 324.52 231.30 328.65 231.46 332.69 C 232.33 350.64 235.17 368.83 242.66 385.30 C 249.90 400.69 261.67 413.55 274.98 423.96 C 291.60 436.68 310.40 446.22 329.69 454.20 C 368.15 469.82 408.59 479.78 449.00 488.88 C 465.01 492.88 481.10 497.42 495.68 505.32 C 501.35 508.35 506.69 512.33 510.19 517.82 C 513.08 521.79 514.23 526.65 516.66 530.88 C 514.90 541.44 507.07 549.95 497.85 554.84 C 486.36 560.89 473.65 564.29 460.88 566.29 C 442.72 568.90 424.11 569.13 405.99 566.11 C 387.13 562.82 368.19 555.22 354.91 541.00 C 344.61 530.01 339.95 514.75 340.04 499.88 C 298.17 499.86 256.30 499.87 214.43 499.88 C 214.60 506.22 215.08 512.56 215.95 518.85 C 215.59 519.20 214.85 519.92 214.49 520.28 C 215.13 547.38 222.69 574.57 237.76 597.24 C 254.29 622.62 278.98 641.95 306.27 654.65 C 347.84 674.17 394.43 680.15 439.96 679.73 C 480.28 678.89 521.63 674.10 558.37 656.42 C 574.94 648.66 589.76 637.56 602.64 624.64 C 611.21 615.27 619.21 605.21 624.76 593.73 C 633.65 576.94 637.84 557.89 638.19 538.97 C 638.30 537.06 637.93 535.20 637.22 533.46 C 638.71 520.67 638.31 507.75 637.31 494.95 C 635.76 477.82 632.38 460.41 623.75 445.32 C 615.13 430.09 601.62 418.13 586.56 409.47 C 558.27 392.90 526.11 385.20 494.87 376.28 C 469.94 369.20 444.98 362.25 420.07 355.16 C 402.53 349.93 384.96 344.11 368.99 335.03 C 360.43 330.20 352.78 322.65 350.40 312.84 C 352.74 309.06 354.48 304.84 357.67 301.65 C 362.17 296.67 368.43 293.86 374.61 291.58 C 386.27 287.42 398.72 286.21 411.00 285.35 C 427.16 284.56 443.54 284.83 459.35 288.55 C 472.55 291.69 485.52 298.17 493.72 309.29 C 502.10 319.73 505.59 332.98 508.06 345.88 C 547.02 346.03 586.00 346.01 624.97 345.87 C 624.85 339.72 623.71 333.66 623.28 327.54 C 623.73 327.27 624.62 326.74 625.06 326.48 C 623.53 302.25 618.06 277.99 606.88 256.31 C 594.48 232.30 575.15 211.62 551.23 198.85 C 531.49 188.21 509.57 182.22 487.52 178.72 C 458.59 174.23 429.16 173.78 399.97 175.40 C 374.17 176.94 348.34 180.91 323.89 189.54 Z" />
</g>
<g id="#ffffffff">
<path fill="#ffffff" opacity="1.00" d=" M 323.89 189.54 C 348.34 180.91 374.17 176.94 399.97 175.40 C 429.16 173.78 458.59 174.23 487.52 178.72 C 509.57 182.22 531.49 188.21 551.23 198.85 C 575.15 211.62 594.48 232.30 606.88 256.31 C 618.06 277.99 623.53 302.25 625.06 326.48 C 586.00 326.44 546.95 326.50 507.89 326.45 C 505.42 309.90 499.32 292.84 486.14 281.80 C 472.22 270.21 453.54 266.89 435.97 265.81 C 418.07 265.10 399.92 265.64 382.41 269.75 C 373.32 272.07 363.87 275.36 357.35 282.46 C 349.93 290.49 348.09 302.43 350.40 312.84 C 352.78 322.65 360.43 330.20 368.99 335.03 C 384.96 344.11 402.53 349.93 420.07 355.16 C 444.98 362.25 469.94 369.20 494.87 376.28 C 526.11 385.20 558.27 392.90 586.56 409.47 C 601.62 418.13 615.13 430.09 623.75 445.32 C 632.38 460.41 635.76 477.82 637.31 494.95 C 638.31 507.75 638.71 520.67 637.22 533.46 C 634.94 552.86 627.92 571.70 616.78 587.76 C 599.67 612.33 574.77 631.08 546.97 641.98 C 511.79 655.91 473.55 659.93 435.96 660.19 C 392.87 660.41 349.01 654.35 309.42 636.61 C 281.42 624.09 255.85 604.88 238.69 579.19 C 226.54 561.21 218.86 540.33 215.95 518.85 C 215.08 512.56 214.60 506.22 214.43 499.88 C 256.30 499.87 298.17 499.86 340.04 499.88 C 339.95 514.75 344.61 530.01 354.91 541.00 C 368.19 555.22 387.13 562.82 405.99 566.11 C 424.11 569.13 442.72 568.90 460.88 566.29 C 473.65 564.29 486.36 560.89 497.85 554.84 C 507.07 549.95 514.90 541.44 516.66 530.88 C 518.31 519.00 516.30 505.95 508.75 496.31 C 503.65 489.71 496.09 485.74 488.67 482.29 C 471.52 474.54 453.11 470.19 434.81 466.12 C 402.78 458.72 370.87 450.37 340.06 438.79 C 320.79 431.42 301.87 422.79 284.64 411.37 C 266.63 399.35 250.33 383.51 241.59 363.40 C 235.93 349.81 233.16 335.18 231.89 320.57 C 231.04 308.72 230.90 296.73 232.92 284.98 C 236.09 266.10 243.73 247.75 256.12 233.04 C 273.59 211.97 298.29 198.28 323.89 189.54 Z" />
</g>
<g id="#4588e6ff">
<path fill="#4588e6" opacity="1.00" d=" M 382.41 269.75 C 399.92 265.64 418.07 265.10 435.97 265.81 C 453.54 266.89 472.22 270.21 486.14 281.80 C 499.32 292.84 505.42 309.90 507.89 326.45 C 546.95 326.50 586.00 326.44 625.06 326.48 C 624.62 326.74 623.73 327.27 623.28 327.54 C 623.71 333.66 624.85 339.72 624.97 345.87 C 586.00 346.01 547.02 346.03 508.06 345.88 C 505.59 332.98 502.10 319.73 493.72 309.29 C 485.52 298.17 472.55 291.69 459.35 288.55 C 443.54 284.83 427.16 284.56 411.00 285.35 C 398.72 286.21 386.27 287.42 374.61 291.58 C 368.43 293.86 362.17 296.67 357.67 301.65 C 354.48 304.84 352.74 309.06 350.40 312.84 C 348.09 302.43 349.93 290.49 357.35 282.46 C 363.87 275.36 373.32 272.07 382.41 269.75 Z" />
<path fill="#4588e6" opacity="1.00" d=" M 231.46 332.69 C 231.30 328.65 230.75 324.52 231.89 320.57 C 233.16 335.18 235.93 349.81 241.59 363.40 C 250.33 383.51 266.63 399.35 284.64 411.37 C 301.87 422.79 320.79 431.42 340.06 438.79 C 370.87 450.37 402.78 458.72 434.81 466.12 C 453.11 470.19 471.52 474.54 488.67 482.29 C 496.09 485.74 503.65 489.71 508.75 496.31 C 516.30 505.95 518.31 519.00 516.66 530.88 C 514.23 526.65 513.08 521.79 510.19 517.82 C 506.69 512.33 501.35 508.35 495.68 505.32 C 481.10 497.42 465.01 492.88 449.00 488.88 C 408.59 479.78 368.15 469.82 329.69 454.20 C 310.40 446.22 291.60 436.68 274.98 423.96 C 261.67 413.55 249.90 400.69 242.66 385.30 C 235.17 368.83 232.33 350.64 231.46 332.69 Z" />
<path fill="#4588e6" opacity="1.00" d=" M 214.49 520.28 C 214.85 519.92 215.59 519.20 215.95 518.85 C 218.86 540.33 226.54 561.21 238.69 579.19 C 255.85 604.88 281.42 624.09 309.42 636.61 C 349.01 654.35 392.87 660.41 435.96 660.19 C 473.55 659.93 511.79 655.91 546.97 641.98 C 574.77 631.08 599.67 612.33 616.78 587.76 C 627.92 571.70 634.94 552.86 637.22 533.46 C 637.93 535.20 638.30 537.06 638.19 538.97 C 637.84 557.89 633.65 576.94 624.76 593.73 C 619.21 605.21 611.21 615.27 602.64 624.64 C 589.76 637.56 574.94 648.66 558.37 656.42 C 521.63 674.10 480.28 678.89 439.96 679.73 C 394.43 680.15 347.84 674.17 306.27 654.65 C 278.98 641.95 254.29 622.62 237.76 597.24 C 222.69 574.57 215.13 547.38 214.49 520.28 Z" />
</g>
</svg>
